<svg width="45" height="45" viewBox="0 0 45 45" fill="none" xmlns="http://www.w3.org/2000/svg">
<path d="M25.3125 41.04C34.3331 39.6825 41.25 31.8994 41.25 22.5C41.25 12.1444 32.8556 3.75 22.5 3.75C12.1444 3.75 3.75 12.1444 3.75 22.5C3.75 31.8994 10.6669 39.6844 19.6875 41.04V28.125H16.875C16.1291 28.125 15.4137 27.8287 14.8863 27.3012C14.3588 26.7738 14.0625 26.0584 14.0625 25.3125C14.0625 24.5666 14.3588 23.8512 14.8863 23.3238C15.4137 22.7963 16.1291 22.5 16.875 22.5H19.6875V18.75C19.6875 17.0095 20.3789 15.3403 21.6096 14.1096C22.8403 12.8789 24.5095 12.1875 26.25 12.1875H27.1875C27.9334 12.1875 28.6488 12.4838 29.1762 13.0113C29.7037 13.5387 30 14.2541 30 15C30 15.7459 29.7037 16.4613 29.1762 16.9887C28.6488 17.5162 27.9334 17.8125 27.1875 17.8125H26.25C26.0014 17.8125 25.7629 17.9113 25.5871 18.0871C25.4113 18.2629 25.3125 18.5014 25.3125 18.75V22.5H28.125C28.8709 22.5 29.5863 22.7963 30.1137 23.3238C30.6412 23.8512 30.9375 24.5666 30.9375 25.3125C30.9375 26.0584 30.6412 26.7738 30.1137 27.3012C29.5863 27.8287 28.8709 28.125 28.125 28.125H25.3125V41.04Z" fill="white"/>
</svg>
