<svg width="45" height="45" viewBox="0 0 45 45" fill="none" xmlns="http://www.w3.org/2000/svg">
<path d="M30 5.625C32.4864 5.625 34.871 6.61272 36.6291 8.37087C38.3873 10.129 39.375 12.5136 39.375 15V30C39.375 32.4864 38.3873 34.871 36.6291 36.6291C34.871 38.3873 32.4864 39.375 30 39.375H15C12.5136 39.375 10.129 38.3873 8.37087 36.6291C6.61272 34.871 5.625 32.4864 5.625 30V15C5.625 12.5136 6.61272 10.129 8.37087 8.37087C10.129 6.61272 12.5136 5.625 15 5.625H30ZM22.5 15C20.5109 15 18.6032 15.7902 17.1967 17.1967C15.7902 18.6032 15 20.5109 15 22.5C15 24.4891 15.7902 26.3968 17.1967 27.8033C18.6032 29.2098 20.5109 30 22.5 30C24.4891 30 26.3968 29.2098 27.8033 27.8033C29.2098 26.3968 30 24.4891 30 22.5C30 20.5109 29.2098 18.6032 27.8033 17.1967C26.3968 15.7902 24.4891 15 22.5 15ZM22.5 18.75C23.4946 18.75 24.4484 19.1451 25.1516 19.8484C25.8549 20.5516 26.25 21.5054 26.25 22.5C26.25 23.4946 25.8549 24.4484 25.1516 25.1516C24.4484 25.8549 23.4946 26.25 22.5 26.25C21.5054 26.25 20.5516 25.8549 19.8484 25.1516C19.1451 24.4484 18.75 23.4946 18.75 22.5C18.75 21.5054 19.1451 20.5516 19.8484 19.8484C20.5516 19.1451 21.5054 18.75 22.5 18.75ZM30.9375 12.1875C30.4402 12.1875 29.9633 12.385 29.6117 12.7367C29.26 13.0883 29.0625 13.5652 29.0625 14.0625C29.0625 14.5598 29.26 15.0367 29.6117 15.3883C29.9633 15.74 30.4402 15.9375 30.9375 15.9375C31.4348 15.9375 31.9117 15.74 32.2633 15.3883C32.615 15.0367 32.8125 14.5598 32.8125 14.0625C32.8125 13.5652 32.615 13.0883 32.2633 12.7367C31.9117 12.385 31.4348 12.1875 30.9375 12.1875Z" fill="white"/>
</svg>
