<svg width="40" height="40" viewBox="0 0 40 40" fill="none" xmlns="http://www.w3.org/2000/svg">
<path fill-rule="evenodd" clip-rule="evenodd" d="M0 4C0 2.93913 0.421427 1.92172 1.17157 1.17157C1.92172 0.421427 2.93913 0 4 0L36 0C37.0609 0 38.0783 0.421427 38.8284 1.17157C39.5786 1.92172 40 2.93913 40 4V36C40 37.0609 39.5786 38.0783 38.8284 38.8284C38.0783 39.5786 37.0609 40 36 40H4C2.93913 40 1.92172 39.5786 1.17157 38.8284C0.421427 38.0783 0 37.0609 0 36L0 4ZM13.3333 13.3333H10.6667V10.6667H13.3333V13.3333ZM10.6667 29.3333V16H13.3333V29.3333H10.6667ZM22.6667 18.6667C21.6058 18.6667 20.5884 19.0881 19.8382 19.8382C19.0881 20.5884 18.6667 21.6058 18.6667 22.6667V29.3333H16V16H18.6667V17.3333C19.6571 16.5905 20.8349 16.1381 22.068 16.0269C23.301 15.9158 24.5407 16.1501 25.6481 16.7038C26.7555 17.2575 27.6868 18.1086 28.3377 19.1618C28.9886 20.215 29.3333 21.4286 29.3333 22.6667V29.3333H26.6667V22.6667C26.6667 21.6058 26.2452 20.5884 25.4951 19.8382C24.7449 19.0881 23.7275 18.6667 22.6667 18.6667Z" fill="white"/>
</svg>
