<svg width="19" height="13" viewBox="0 0 19 13" fill="none" xmlns="http://www.w3.org/2000/svg">
<path d="M1.02226 12.4649C0.732619 12.4649 0.490004 12.3652 0.294413 12.1657C0.0988216 11.9663 0.000685028 11.7198 3.52501e-06 11.4262C-0.000677978 11.1325 0.0974586 10.886 0.294413 10.6866C0.491367 10.4871 0.733982 10.3874 1.02226 10.3874H17.3783C17.668 10.3874 17.9109 10.4871 18.1072 10.6866C18.3035 10.886 18.4013 11.1325 18.4006 11.4262C18.3999 11.7198 18.3018 11.9666 18.1062 12.1668C17.9106 12.3669 17.668 12.4663 17.3783 12.4649H1.02226ZM1.02226 7.27119C0.732619 7.27119 0.490004 7.17147 0.294413 6.97203C0.0988216 6.7726 0.000685028 6.52607 3.52501e-06 6.23245C-0.000677978 5.93883 0.0974586 5.6923 0.294413 5.49287C0.491367 5.29343 0.733982 5.19371 1.02226 5.19371C1.31053 5.19371 17.0887 5.19371 17.3783 5.19371C17.668 5.19371 17.9109 5.29343 18.1072 5.49287C18.3035 5.6923 18.4013 5.93883 18.4006 6.23245C18.3999 6.52607 18.3018 6.77294 18.1062 6.97307C17.9106 7.1732 17.668 7.27258 17.3783 7.27119C17.0887 7.26981 1.3119 7.27119 1.02226 7.27119ZM1.02226 2.07748C0.732619 2.07748 0.490004 1.97776 0.294413 1.77833C0.0988216 1.57889 0.000685028 1.33236 3.52501e-06 1.03874C-0.000677978 0.745124 0.0974586 0.498596 0.294413 0.299158C0.491367 0.0997193 0.733982 0 1.02226 0H17.3783C17.668 0 17.9109 0.0997193 18.1072 0.299158C18.3035 0.498596 18.4013 0.745124 18.4006 1.03874C18.3999 1.33236 18.3018 1.57923 18.1062 1.77936C17.9106 1.9795 17.668 2.07887 17.3783 2.07748H1.02226Z" fill="white"/>
</svg>
